<?xml version="1.0" encoding="utf-8"?>
<svg xml:space="preserve" viewBox="0 0 100 100" y="0" x="0" xmlns="http://www.w3.org/2000/svg" id="Layer_1" version="1.1" style="height: 100%; width: 100%; background: none; shape-rendering: auto;" width="200px" height="200px"><g class="ldl-scale" style="transform-origin: 50% 50%; transform: rotate(0deg) scale(0.8, 0.8);"><g class="ldl-ani"><g class="ldl-layer"><g class="ldl-ani" style="transform: scale(0.91); transform-origin: 50px 50px; animation: 1.11111s linear -0.648148s infinite normal forwards running breath-b5d21fda-033a-4745-ade7-515db05ad56f;"><path d="M91 84.817H41.005l24.998-40.2z" stroke-width="3.5" stroke="#333" fill="#acbd81" stroke-miterlimit="10" style="fill: rgb(181, 53, 53); stroke: rgb(51, 51, 51);"></path></g></g><g class="ldl-layer"><g class="ldl-ani" style="transform: scale(0.91); transform-origin: 50px 50px; animation: 1.11111s linear -0.740741s infinite normal forwards running breath-b5d21fda-033a-4745-ade7-515db05ad56f;"><path d="M59.649 60.573l3.441-3.207 2.913 3.256 2.985-3.123 3.222 3.074 2.359-2.18-8.566-13.776-8.6 13.831z" stroke-miterlimit="10" stroke="#333" fill="#fff" stroke-width="3.5" style="fill: rgb(255, 255, 255); stroke: rgb(51, 51, 51);"></path></g></g><g class="ldl-layer"><g class="ldl-ani" style="transform: scale(0.91); transform-origin: 50px 50px; animation: 1.11111s linear -0.833333s infinite normal forwards running breath-b5d21fda-033a-4745-ade7-515db05ad56f;"><path stroke-miterlimit="10" stroke-width="3.5" stroke="#333" fill="#e0e0e0" d="M64.165 50.991H32.014A5.014 5.014 0 0 1 27 45.977v-.737a5.014 5.014 0 0 1 5.014-5.014h32.151a5.014 5.014 0 0 1 5.014 5.014v.737a5.014 5.014 0 0 1-5.014 5.014z" style="fill: rgb(158, 222, 233); stroke: rgb(51, 51, 51);"></path></g></g><g class="ldl-layer"><g class="ldl-ani" style="transform: scale(0.91); transform-origin: 50px 50px; animation: 1.11111s linear -0.925926s infinite normal forwards running breath-b5d21fda-033a-4745-ade7-515db05ad56f;"><path d="M69.179 84.817H9l30.09-48.389z" stroke-width="3.5" stroke="#333" fill="#acbd81" stroke-miterlimit="10" style="fill: rgb(181, 53, 53); stroke: rgb(51, 51, 51);"></path></g></g><g class="ldl-layer"><g class="ldl-ani" style="transform: scale(0.91); transform-origin: 50px 50px; animation: 1.11111s linear -1.01852s infinite normal forwards running breath-b5d21fda-033a-4745-ade7-515db05ad56f;"><path d="M31.712 54.731l3.995-3.724 3.383 3.781 3.466-3.626 3.741 3.569 2.65-2.45-9.857-15.853-9.899 15.918z" stroke-miterlimit="10" stroke="#333" fill="#fff" stroke-width="3.5" style="fill: rgb(255, 255, 255); stroke: rgb(51, 51, 51);"></path></g></g><g class="ldl-layer"><g class="ldl-ani" style="transform: scale(0.91); transform-origin: 50px 50px; animation: 1.11111s linear -1.11111s infinite normal forwards running breath-b5d21fda-033a-4745-ade7-515db05ad56f;"><path stroke-linejoin="round" stroke="#333" fill="#e0e0e0" stroke-miterlimit="10" stroke-width="3.5" d="M77.415 23.272H65.376a5.327 5.327 0 0 0 .755-2.706 5.382 5.382 0 0 0-5.382-5.382H35.81a5.382 5.382 0 1 0 0 10.764h12.039a5.327 5.327 0 0 0-.755 2.706 5.382 5.382 0 0 0 5.382 5.382h24.938a5.382 5.382 0 0 0 .001-10.764z" style="fill: rgb(158, 222, 233); stroke: rgb(51, 51, 51);"></path></g></g><metadata xmlns:d="https://loading.io/stock/">
<d:name>hiking</d:name>
<d:tags>hiking,mountain climbing,outdoor,nature,hill,camping,trek,trail</d:tags>
<d:license>by</d:license>
<d:slug>pkx43f</d:slug>
</metadata></g></g><style id="breath-b5d21fda-033a-4745-ade7-515db05ad56f" data-anikit="">@keyframes breath-b5d21fda-033a-4745-ade7-515db05ad56f
{
  0% {
    animation-timing-function: cubic-bezier(0.9647,0.2413,-0.0705,0.7911);
    transform: scale(0.9099999999999999);
  }
  51% {
    animation-timing-function: cubic-bezier(0.9226,0.2631,-0.0308,0.7628);
    transform: scale(1.02994);
  }
  100% {
    transform: scale(0.9099999999999999);
  }
}</style><!-- [ldio] generated by https://loading.io/ --></svg>